<?xml version="1.0" standalone="no"?>
<!DOCTYPE svg PUBLIC "-//W3C//DTD SVG 20010904//EN"
 "http://www.w3.org/TR/2001/REC-SVG-20010904/DTD/svg10.dtd">
<svg version="1.0" xmlns="http://www.w3.org/2000/svg"
 width="128.000000pt" height="128.000000pt" viewBox="0 0 128.000000 128.000000"
 preserveAspectRatio="xMidYMid meet">
<metadata>
Created by potrace 1.14, written by Peter Selinger 2001-2017
</metadata>
<g transform="translate(0.000000,128.000000) scale(0.100000,-0.100000)"
fill="#000000" stroke="none">
<path d="M115 1136 c-17 -7 -45 -30 -63 -50 l-32 -37 0 -183 c0 -177 1 -183
22 -203 32 -29 59 -41 117 -54 28 -6 51 -13 51 -15 0 -2 -20 -51 -44 -107 -60
-140 -71 -179 -58 -204 12 -21 324 -143 367 -143 36 0 52 33 72 147 15 91 19
101 33 89 40 -35 60 -38 97 -16 19 11 37 20 38 18 1 -2 10 -46 19 -98 20 -108
36 -140 71 -140 43 0 355 122 367 143 13 25 2 64 -58 204 -50 116 -49 113 -31
113 33 0 119 33 147 56 l30 26 0 184 0 183 -32 37 c-43 49 -83 64 -170 64 -54
0 -94 -8 -153 -28 -72 -25 -194 -96 -210 -122 -8 -13 -102 -13 -110 0 -16 26
-138 97 -210 122 -90 31 -206 37 -260 14z m265 -70 c71 -29 180 -103 180 -123
0 -19 -11 -15 -45 13 -16 15 -24 23 -16 19 9 -5 12 -4 7 3 -4 6 -13 9 -20 6
-8 -3 -40 8 -72 24 -130 65 -249 65 -321 -1 -22 -20 -23 -20 -23 -1 0 29 28
64 64 80 47 22 166 12 246 -20z m752 24 c41 -12 78 -51 78 -83 l0 -20 -22 20
c-51 46 -120 60 -206 42 -62 -13 -204 -78 -238 -110 -17 -16 -23 -17 -27 -6
-3 8 9 25 28 40 39 31 54 35 34 10 -13 -16 -12 -17 3 -5 10 8 16 19 15 25 -3
14 115 74 168 86 56 12 123 13 167 1z m-444 -187 c5 -34 -36 -50 -76 -29 -23
12 -29 21 -25 36 5 18 12 21 52 18 39 -3 46 -6 49 -25z m236 -43 c14 -18 26
-36 26 -41 0 -5 21 -9 48 -9 93 0 212 -45 212 -80 0 -25 -2 -25 -48 -1 -41 21
-127 41 -173 41 -25 0 -32 6 -45 40 -15 37 -40 64 -90 98 -11 7 -5 6 12 -2 18
-9 43 -29 58 -46z m-522 28 c-18 -13 -43 -44 -55 -70 -19 -43 -25 -48 -54 -48
-48 0 -133 -20 -175 -41 -46 -24 -48 -24 -48 1 0 35 118 80 211 80 40 0 49 4
64 28 19 30 65 72 80 72 5 0 -5 -10 -23 -22z m188 -37 l54 -29 51 29 c90 51
177 34 215 -41 35 -69 22 -141 -40 -220 -25 -31 -140 -134 -211 -188 -14 -11
-28 -4 -90 46 -117 93 -186 173 -205 238 -15 52 -15 59 1 100 37 96 120 121
225 65z m-253 -227 c-4 -4 -16 -12 -29 -18 -26 -13 -39 -42 -15 -33 14 5 13
-4 -7 -56 -13 -34 -36 -93 -51 -131 -14 -38 -24 -75 -21 -83 6 -15 -4 -16 -38
-3 l-25 9 35 87 c60 149 101 222 126 227 13 2 25 5 27 6 2 0 1 -2 -2 -5z m688
-73 c18 -37 49 -107 69 -155 l35 -87 -25 -9 c-34 -13 -44 -12 -38 3 3 8 -7 45
-21 83 -15 38 -38 97 -51 131 -20 52 -21 61 -7 56 24 -9 11 20 -15 33 -33 17
-36 22 -7 16 20 -3 34 -20 60 -71z m-509 -125 c-3 -11 -12 -64 -22 -116 -20
-115 -23 -120 -50 -110 l-22 8 23 94 c30 130 35 140 51 134 8 -3 14 -1 14 4 0
6 -4 10 -10 10 -5 0 -10 5 -10 11 0 8 5 8 15 -1 8 -7 13 -22 11 -34z m269 24
c-15 -17 -16 -20 -3 -15 19 7 22 0 53 -133 l23 -94 -22 -8 c-27 -10 -30 -5
-50 110 -10 52 -19 104 -21 114 -4 21 11 46 28 46 5 0 2 -9 -8 -20z m-495
-180 c8 -5 11 -10 5 -10 -5 0 -17 5 -25 10 -8 5 -10 10 -5 10 6 0 17 -5 25
-10z m720 0 c-8 -5 -19 -10 -25 -10 -5 0 -3 5 5 10 8 5 20 10 25 10 6 0 3 -5
-5 -10z m-640 -30 c8 -5 11 -10 5 -10 -5 0 -17 5 -25 10 -8 5 -10 10 -5 10 6
0 17 -5 25 -10z m560 0 c-8 -5 -19 -10 -25 -10 -5 0 -3 5 5 10 8 5 20 10 25
10 6 0 3 -5 -5 -10z"/>
<path d="M520 966 c0 -2 8 -10 18 -17 15 -13 16 -12 3 4 -13 16 -21 21 -21 13z"/>
<path d="M739 953 c-13 -16 -12 -17 4 -4 9 7 17 15 17 17 0 8 -8 3 -21 -13z"/>
<path d="M623 879 c11 -7 23 -7 35 0 14 9 11 10 -18 10 -29 0 -32 -1 -17 -10z"/>
<path d="M468 835 c-35 -19 -68 -75 -68 -115 0 -17 7 -47 16 -66 17 -36 164
-180 208 -203 23 -13 28 -11 68 21 73 60 146 134 167 169 42 68 19 163 -45
194 -44 21 -62 19 -121 -10 l-51 -26 -47 26 c-54 28 -88 31 -127 10z m127 -49
l48 -25 55 26 c43 20 60 24 85 17 40 -11 71 -68 61 -109 -7 -29 -102 -136
-165 -186 l-38 -30 -81 71 c-122 108 -149 188 -83 240 34 26 59 25 118 -4z"/>
</g>
</svg>
