<?xml version="1.0" standalone="no"?>
<!DOCTYPE svg PUBLIC "-//W3C//DTD SVG 20010904//EN"
 "http://www.w3.org/TR/2001/REC-SVG-20010904/DTD/svg10.dtd">
<svg version="1.0" xmlns="http://www.w3.org/2000/svg"
 width="512.000000pt" height="512.000000pt" viewBox="0 0 512.000000 512.000000"
 preserveAspectRatio="xMidYMid meet">
<metadata>
Created by potrace 1.14, written by Peter Selinger 2001-2017
</metadata>
<g transform="translate(0.000000,512.000000) scale(0.100000,-0.100000)"
fill="#000000" stroke="none">
<path d="M633 4586 c-6 -8 -38 -18 -70 -24 -81 -14 -206 -74 -270 -128 -85
-73 -158 -170 -177 -236 -9 -32 -21 -58 -26 -58 -6 0 -10 -245 -10 -675 0
-445 3 -675 10 -675 6 0 16 -21 22 -46 20 -75 122 -159 283 -234 55 -26 199
-61 285 -70 47 -5 98 -13 113 -19 19 -8 34 -8 47 -1 10 5 21 10 24 10 18 0 -1
-64 -47 -163 -30 -61 -61 -128 -70 -147 -40 -90 -108 -252 -132 -314 -15 -38
-31 -77 -36 -85 -11 -19 -74 -185 -99 -261 -10 -30 -28 -80 -41 -110 -32 -80
-35 -138 -10 -188 44 -85 81 -109 291 -184 30 -11 69 -26 85 -34 17 -7 49 -18
72 -24 23 -6 45 -14 47 -19 3 -5 21 -12 41 -15 19 -4 60 -18 92 -32 82 -36 89
-39 178 -69 105 -36 207 -75 220 -85 6 -4 26 -11 45 -15 19 -4 51 -16 70 -26
19 -11 42 -19 50 -19 9 0 25 -7 37 -15 12 -8 44 -20 73 -26 28 -6 54 -17 57
-25 7 -20 203 -20 203 -1 0 8 10 19 23 26 26 14 67 70 67 92 0 8 7 39 15 69 9
30 22 93 30 140 30 180 70 382 96 492 11 43 19 92 19 110 0 60 12 64 65 27
143 -101 173 -120 210 -130 86 -24 139 -5 276 100 76 57 89 57 89 -2 0 -15 8
-62 19 -105 27 -111 68 -324 95 -487 7 -44 20 -107 29 -140 8 -33 18 -71 21
-85 3 -14 26 -47 50 -73 l46 -47 94 0 c71 0 95 3 99 14 3 8 29 19 57 25 29 6
61 18 73 26 12 8 28 15 37 15 8 0 31 8 50 19 19 10 51 22 70 26 19 4 40 11 45
15 13 10 115 49 220 85 89 30 96 33 176 68 32 14 72 28 90 32 19 4 39 11 44
15 6 4 28 13 50 19 22 7 54 18 70 26 17 7 55 22 85 33 156 56 202 77 236 111
79 79 91 148 45 261 -13 30 -31 80 -41 110 -25 76 -88 242 -99 261 -5 8 -21
47 -36 85 -24 62 -92 223 -132 314 -9 19 -42 90 -75 158 -32 67 -58 130 -58
139 0 13 10 15 68 9 67 -6 147 6 312 48 72 19 100 31 212 94 99 56 160 116
176 176 6 25 16 46 22 46 7 0 10 230 10 675 0 430 -4 675 -10 675 -5 0 -17 26
-26 58 -19 66 -92 163 -177 236 -64 54 -189 114 -270 128 -32 6 -64 17 -72 24
-20 21 -500 20 -521 0 -8 -8 -36 -18 -62 -21 -77 -11 -191 -45 -345 -105 -29
-11 -56 -20 -60 -20 -10 0 -280 -134 -329 -163 -20 -12 -58 -35 -83 -52 -57
-37 -335 -256 -354 -278 -11 -15 -37 -17 -171 -17 -134 0 -160 2 -171 17 -19
22 -297 241 -354 278 -25 17 -63 40 -83 52 -49 29 -319 163 -329 163 -4 0 -31
9 -60 20 -154 60 -268 94 -345 105 -26 3 -54 13 -62 21 -21 20 -505 20 -523 0z
m415 -186 c307 -32 700 -197 985 -412 203 -153 261 -212 227 -233 -5 -3 -17
-31 -26 -63 -24 -79 -35 -90 -77 -74 -17 7 -81 18 -142 24 -107 11 -113 11
-205 -16 -194 -56 -314 -157 -410 -346 -20 -41 -40 -89 -44 -105 -4 -17 -15
-45 -25 -61 -18 -29 -23 -31 -102 -38 -416 -33 -730 -120 -866 -240 -36 -31
-49 -37 -62 -29 -19 12 -18 -11 -21 770 -2 524 -2 532 19 576 44 91 152 179
265 217 113 37 304 49 484 30z m3392 -4 c96 -16 156 -36 215 -70 47 -29 118
-97 151 -146 22 -34 49 -154 38 -171 -3 -5 -5 -271 -5 -591 0 -364 -4 -588
-10 -600 -15 -27 -35 -22 -82 21 -67 62 -168 105 -409 175 -53 16 -265 46
-428 61 -83 8 -105 21 -115 67 -17 77 -104 237 -164 302 -89 96 -234 175 -358
195 -73 12 -263 -4 -307 -25 -49 -24 -64 -18 -77 29 -6 23 -20 64 -32 91 l-21
49 55 50 c87 78 285 224 383 282 188 110 410 203 591 247 191 47 416 60 575
34z m-1707 -678 c27 -25 62 -144 51 -172 -6 -16 -175 -125 -205 -133 -9 -3
-34 6 -55 20 -22 13 -72 43 -113 67 -89 53 -98 69 -77 141 26 87 19 83 168 90
73 3 150 6 170 7 26 1 44 -5 61 -20z m-662 -182 c107 -18 173 -45 319 -131
152 -89 162 -95 180 -95 19 0 44 13 221 118 112 67 165 87 277 106 116 20 168
20 245 0 161 -42 269 -138 361 -322 75 -149 85 -283 35 -465 -17 -61 -42 -133
-55 -159 -47 -94 -201 -283 -340 -418 -261 -254 -697 -610 -748 -610 -22 0
-242 167 -451 343 -172 144 -468 444 -544 552 -78 110 -110 180 -145 311 -31
118 -34 229 -10 313 39 138 122 277 208 350 70 61 88 71 169 96 84 27 159 30
278 11z m-787 -542 c13 -5 16 -22 16 -77 0 -49 8 -96 26 -153 15 -46 24 -89
21 -97 -5 -14 -67 -22 -294 -41 -85 -8 -358 11 -452 30 -78 16 -183 57 -201
79 -20 24 1 42 108 92 151 72 314 117 517 142 50 6 119 15 155 20 90 12 87 12
104 5z m2717 -14 c235 -23 453 -78 615 -156 138 -65 142 -80 36 -127 -117 -52
-199 -62 -517 -61 -201 0 -299 4 -319 12 -32 14 -32 19 4 137 12 41 20 93 19
125 -1 30 -1 61 0 68 1 15 28 15 162 2z m-2544 -527 c175 -239 314 -385 562
-588 72 -59 73 -60 68 -100 -10 -76 -37 -230 -62 -355 -79 -395 -114 -578
-117 -604 -2 -16 -12 -35 -23 -42 -20 -13 -62 1 -201 66 -23 11 -74 31 -115
44 -41 13 -107 38 -147 55 -40 17 -88 35 -105 40 -18 5 -135 48 -262 95 -126
48 -273 101 -325 118 -52 17 -104 39 -114 49 -19 17 -19 21 -4 51 20 44 95
234 153 387 124 331 373 827 420 836 58 11 144 22 177 24 36 1 41 -3 95 -76z
m2423 61 c30 -4 63 -13 72 -22 52 -44 307 -561 394 -797 80 -218 140 -371 154
-397 14 -25 12 -64 -2 -75 -7 -6 -56 -24 -108 -41 -52 -17 -180 -63 -285 -103
-104 -39 -227 -84 -273 -100 -45 -16 -115 -42 -155 -58 -40 -17 -111 -43 -158
-59 -47 -17 -94 -35 -105 -41 -37 -20 -151 -61 -172 -61 -15 0 -23 7 -26 23
-41 217 -101 532 -116 602 -29 135 -63 336 -64 374 -1 32 8 42 119 135 219
184 472 458 558 604 20 33 22 34 66 28 25 -3 71 -9 101 -12z"/>
<path d="M1355 2439 c-4 -6 -5 -13 -2 -16 7 -7 27 6 27 18 0 12 -17 12 -25 -2z"/>
<path d="M1875 1853 c9 -36 14 -41 25 -23 10 16 -5 50 -21 50 -7 0 -9 -10 -4
-27z"/>
<path d="M3750 2426 c0 -7 8 -20 17 -27 15 -12 16 -12 10 4 -4 10 -7 23 -7 28
0 5 -4 9 -10 9 -5 0 -10 -6 -10 -14z"/>
<path d="M3846 2243 c-11 -11 -6 -23 9 -23 8 0 15 4 15 9 0 13 -16 22 -24 14z"/>
<path d="M3220 1845 c0 -8 5 -15 10 -15 6 0 10 7 10 15 0 8 -4 15 -10 15 -5 0
-10 -7 -10 -15z"/>
</g>
</svg>
