<svg xmlns="http://www.w3.org/2000/svg" width="50" height="50"><path d="m 24.947611,39.794395 q -2.906645,0 -5.526735,-0.859678 -2.620078,-0.900642 -4.380444,-2.497265 l 1.473799,-3.275106 q 1.92412,1.555681 3.971064,2.292581 2.046933,0.736899 4.339503,0.736899 2.947598,0 4.462327,-1.269091 1.55567,-1.269104 1.55567,-3.643556 0,-2.374453 -1.55567,-3.520732 -1.514729,-1.146314 -4.421386,-1.146314 H 20.403412 V 23.05046 h 4.052936 q 2.579148,0 4.052936,-1.310033 1.51474,-1.310045 1.51474,-3.602615 0,-2.087874 -1.391916,-3.193223 -1.391916,-1.146314 -3.971064,-1.146314 -4.380444,0 -7.655551,3.152293 l -1.473799,-3.234165 q 1.678495,-1.678494 4.17576,-2.579148 2.538207,-0.941606 5.281098,-0.941606 4.339514,0 6.754896,2.006002 2.415395,1.965062 2.415395,5.485794 0,2.374452 -1.228162,4.17576 -1.187233,1.801307 -3.316048,2.620078 2.579148,0.655086 3.971064,2.538206 1.391916,1.842249 1.391916,4.544198 0,3.807311 -2.701961,6.018009 -2.661019,2.210687 -7.328041,2.210699 z" fill="#fff"/><path d="M 25.000006,0 C 11.228178,0 0,11.228178 0,25.000006 0,38.771833 11.228178,50 25.000006,50 38.771833,50 50.000012,38.771833 50.000012,25.000006 50.000012,11.228178 38.771833,0 25.000006,0 Z m 0,6.1423416 c 10.453076,0 18.880328,8.4045884 18.880328,18.8576644 0,10.453064 -8.427252,18.857664 -18.880328,18.857664 -10.453076,0 -18.8576644,-8.4046 -18.8576644,-18.857664 0,-10.453076 8.4045884,-18.8576644 18.8576644,-18.8576644 z" fill="#fff"/></svg>