<svg xmlns="http://www.w3.org/2000/svg" width="50" height="50"><path d="M 27.270172,39.047898 V 33.193655 H 14.292583 V 30.041362 L 28.007071,10.186063 h 3.479802 v 19.445919 h 4.21669 v 3.561673 h -4.21669 v 5.854243 z m 0,-9.415916 V 16.818147 l -8.760888,12.813835 z" fill="#fff"/><path d="M 25.000006,0 C 11.228178,0 0,11.228178 0,25.000006 0,38.771833 11.228178,50 25.000006,50 38.771833,50 50.000012,38.771833 50.000012,25.000006 50.000012,11.228178 38.771833,0 25.000006,0 Z m 0,6.1423416 c 10.453076,0 18.880328,8.4045884 18.880328,18.8576644 0,10.453064 -8.427252,18.857664 -18.880328,18.857664 -10.453076,0 -18.8576644,-8.4046 -18.8576644,-18.857664 0,-10.453076 8.4045884,-18.8576644 18.8576644,-18.8576644 z" fill="#fff"/></svg>