<svg xmlns="http://www.w3.org/2000/svg" width="50" height="50"><path d="m 24.824821,39.610147 q -2.783832,0 -5.40391,-0.859678 -2.579149,-0.900642 -4.298573,-2.497265 l 1.432858,-3.275095 q 3.766368,3.029469 8.187754,3.029469 2.824773,0 4.421385,-1.51474 1.596612,-1.55567 1.596612,-4.052936 0,-2.579148 -1.514729,-4.216689 -1.51474,-1.637554 -4.216701,-1.637554 -3.807299,0 -6.099869,3.152282 H 15.98205 V 10.379908 h 17.194279 v 3.561673 h -13.05946 v 9.129338 q 2.29257,-2.005991 5.813301,-2.005991 2.742903,0 4.748906,1.146314 2.005991,1.146313 3.11134,3.234164 1.105349,2.046945 1.105349,4.789836 0,2.783832 -1.228162,4.912659 -1.228162,2.087874 -3.479802,3.275095 -2.251628,1.18722 -5.36298,1.18722 z" fill="#fff"/><path d="M 25.000006,0 C 11.228178,0 0,11.228178 0,25.000006 0,38.771833 11.228178,50 25.000006,50 38.771833,50 50.000012,38.771833 50.000012,25.000006 50.000012,11.228178 38.771833,0 25.000006,0 Z m 0,6.1423416 c 10.453076,0 18.880328,8.4045884 18.880328,18.8576644 0,10.453064 -8.427252,18.857664 -18.880328,18.857664 -10.453076,0 -18.8576644,-8.4046 -18.8576644,-18.857664 0,-10.453076 8.4045884,-18.8576644 18.8576644,-18.8576644 z" fill="#fff"/></svg>