<svg xmlns="http://www.w3.org/2000/svg" width="50" height="50"><path d="m 13.935525,15 v 20 h 2.95042 V 15 Z m 5.07569,0 8.821639,20 h 2.52894 L 39.183395,15 H 36.173614 L 29.168554,31.28378 22.163494,15 Z" fill="#fff"/><path d="M 25.000006,0 C 11.228178,0 0,11.228178 0,25.000006 0,38.771833 11.228178,50 25.000006,50 38.771833,50 50.000012,38.771833 50.000012,25.000006 50.000012,11.228178 38.771833,0 25.000006,0 Z m 0,6.1423416 c 10.453076,0 18.880328,8.4045884 18.880328,18.8576644 0,10.453064 -8.427252,18.857664 -18.880328,18.857664 -10.453076,0 -18.8576644,-8.4046 -18.8576644,-18.857664 0,-10.453076 8.4045884,-18.8576644 18.8576644,-18.8576644 z" fill="#fff"/></svg>