<svg xmlns="http://www.w3.org/2000/svg" width="50" height="50"><path d="M 13.295384,13.395284 23.532647,36.604717 H 26.46741 L 36.704628,13.395284 H 33.211862 L 25.082689,32.292149 16.953515,13.395284 Z" fill="#fff"/><path d="M 25.000006,0 C 11.228178,0 0,11.228178 0,25.000006 0,38.771833 11.228178,50 25.000006,50 38.771833,50 50.000012,38.771833 50.000012,25.000006 50.000012,11.228178 38.771833,0 25.000006,0 Z m 0,6.1423416 c 10.453076,0 18.880328,8.4045884 18.880328,18.8576644 0,10.453064 -8.427252,18.857664 -18.880328,18.857664 -10.453076,0 -18.8576644,-8.4046 -18.8576644,-18.857664 0,-10.453076 8.4045884,-18.8576644 18.8576644,-18.8576644 z" fill="#fff"/></svg>