<svg xmlns="http://www.w3.org/2000/svg" width="50" height="50"><path d="M 8.7304688 2 C 6.6705567 2 5 3.6705567 5 5.7304688 L 5 20.648438 C 5 22.70835 6.6705566 24.378906 8.7304688 24.378906 L 41.054688 24.378906 C 43.114598 24.378906 44.783203 22.70835 44.783203 20.648438 L 44.783203 5.7304688 C 44.783203 3.6705567 43.114596 2 41.054688 2 L 8.7304688 2 z M 18.054688 5.7304688 L 31.730469 5.7304688 C 32.760514 5.7304687 33.59375 6.563883 33.59375 7.59375 L 33.59375 18.783203 C 33.59375 19.813248 32.760336 20.648438 31.730469 20.648438 L 18.054688 20.648438 C 17.024642 20.648437 16.189453 19.813069 16.189453 18.783203 L 16.189453 7.59375 C 16.189453 6.563704 17.024822 5.7304687 18.054688 5.7304688 z M 8.7304688 25.621094 C 6.6705566 25.621094 5 27.291652 5 29.351562 L 5 44.269531 C 5 46.329444 6.6705566 48 8.7304688 48 L 41.054688 48 C 43.114598 48 44.783203 46.329444 44.783203 44.269531 L 44.783203 29.351562 C 44.783203 27.29165 43.114595 25.621094 41.054688 25.621094 L 8.7304688 25.621094 z M 18.054688 29.351562 L 31.730469 29.351562 C 32.760514 29.351563 33.59375 30.18693 33.59375 31.216797 L 33.59375 42.40625 C 33.59375 43.436296 32.760336 44.269531 31.730469 44.269531 L 18.054688 44.269531 C 17.024642 44.269531 16.189453 43.436117 16.189453 42.40625 L 16.189453 31.216797 C 16.189453 30.186751 17.024822 29.351562 18.054688 29.351562 z M 10.818359 32.710938 L 12.794922 32.710938 L 12.794922 34.802734 L 14.921875 34.800781 L 14.921875 36.783203 L 12.794922 36.783203 L 12.794922 38.927734 L 10.818359 38.927734 L 10.818359 36.783203 L 8.7050781 36.785156 L 8.7050781 34.802734 L 10.818359 34.802734 L 10.818359 32.710938 z M 38.572266 32.792969 C 39.101016 32.792969 39.529297 33.221249 39.529297 33.75 C 39.529297 34.278751 39.101016 34.708984 38.572266 34.708984 C 38.553756 34.708984 38.535441 34.707968 38.519531 34.707031 C 38.514791 34.707102 38.507253 34.707031 38.501953 34.707031 C 37.978313 34.707031 37.554688 34.283276 37.554688 33.759766 C 37.554688 33.755296 37.554657 33.749794 37.554688 33.746094 C 37.561678 33.220606 37.988823 32.796022 38.515625 32.794922 C 38.533805 32.793831 38.553826 32.792969 38.572266 32.792969 z M 36.457031 34.861328 C 36.984081 34.861328 37.410156 35.289358 37.410156 35.816406 C 37.410156 36.343456 36.983943 36.769531 36.457031 36.769531 L 36.455078 36.769531 C 36.449178 36.769644 36.441347 36.769531 36.435547 36.769531 C 35.921252 36.769531 35.505006 36.353882 35.503906 35.839844 C 35.503706 35.832894 35.501953 35.823406 35.501953 35.816406 C 35.501953 35.289358 35.930111 34.861328 36.457031 34.861328 z M 40.597656 34.867188 C 41.122996 34.867188 41.548828 35.293012 41.548828 35.818359 C 41.548828 36.343706 41.122856 36.769531 40.597656 36.769531 C 40.072306 36.769531 39.646484 36.343706 39.646484 35.818359 C 39.646484 35.293012 40.072436 34.867188 40.597656 34.867188 z M 38.517578 36.941406 C 39.036838 36.942929 39.459109 37.355762 39.474609 37.873047 L 39.474609 37.875 C 39.467849 38.402093 39.044538 38.827844 38.517578 38.839844 L 38.517578 38.849609 C 37.990538 38.849609 37.564453 38.423533 37.564453 37.896484 C 37.564453 37.369436 37.990668 36.941406 38.517578 36.941406 z" fill="#fff"/></svg>