<svg xmlns="http://www.w3.org/2000/svg" width="50" height="50"><path d="m 13.727471,12 c -0.146291,0 -0.244392,0.0482 -0.341919,0.145721 -0.438877,0.292583 -0.876991,0.585169 -1.657216,0.97528 -1.219102,0.585168 -2.3902012,1.170337 -3.9506504,1.462923 -1.8530342,0.341348 -2.2431466,-0.04857 -2.9258433,0.439067 -0.8777531,0.633932 -0.9752814,2.389628 -1.2191015,4.34019 l -0.5847877,5.51072 c -0.6339326,5.851686 -0.1461017,6.826968 0.439067,7.558428 0.6826967,0.828988 1.6575971,1.169955 2.2915295,1.31625 0.8777528,0.195054 2.1947633,0.585547 3.8039772,1.121952 1.8042702,0.633933 3.0233712,1.169957 3.4134852,1.316249 1.706741,0.731461 4.680967,1.511496 10.337599,1.755316 h 0.0981 0.389542 0.195246 0.24382 0.390496 0.681933 0.390493 0.243821 0.195247 0.389542 0.0981 c 5.656629,-0.24382 8.631045,-1.023855 10.289023,-1.755316 0.390114,-0.146292 1.609214,-0.73108 3.413486,-1.316249 1.609213,-0.536405 2.974986,-0.926898 3.803975,-1.121952 0.633934,-0.146295 1.56007,-0.487262 2.29153,-1.31625 0.585169,-0.780224 1.219292,-1.756269 0.439068,-7.607954 L 46.106997,18.778394 C 45.863178,16.827832 45.959943,15.656923 45.082192,15.022991 44.399494,14.535349 44.009383,14.925271 42.156348,14.583924 40.595898,14.291338 39.425751,13.706169 38.206649,13.121001 37.426424,12.73089 36.987358,12.438304 36.548481,12.145721 36.450961,12.048191 36.305042,12 36.207515,12 Z m 1.364823,4.632585 H 34.744588 V 30.188421 H 15.092294 Z m -7.3146084,2.827744 h 1.2686282 c 0.146291,0 0.292392,0.147053 0.292392,0.293345 v 1.706743 h 1.7067432 c 0.146292,0 0.292394,0.146101 0.292394,0.292393 v 1.267676 c 0,0.146291 -0.146102,0.292393 -0.292394,0.292393 H 9.3387058 v 1.706741 c 0,0.146294 -0.146101,0.292395 -0.292392,0.292395 H 7.7776856 c -0.1462923,0 -0.2923942,-0.146101 -0.2923942,-0.292395 V 23.312879 H 5.7785496 c -0.1462922,0 -0.2923938,-0.146102 -0.2923938,-0.292393 V 21.75281 c 0,-0.146292 0.1461016,-0.292393 0.2923938,-0.292393 h 1.7067418 v -1.706743 c 0,-0.146292 0.1461019,-0.293345 0.2923942,-0.293345 z m 35.4520384,1.268627 c 0.780224,0 1.364823,0.633361 1.364823,1.364822 0,0.780225 -0.584599,1.414348 -1.364823,1.414348 -0.780225,0 -1.414348,-0.634123 -1.414348,-1.414348 0,-0.780225 0.634123,-1.364822 1.414348,-1.364822 z m -4.09637,1.364822 c 0.780223,0 1.365775,0.634124 1.365775,1.414348 0,0.780225 -0.634316,1.365775 -1.365775,1.365775 -0.780225,0 -1.414349,-0.634314 -1.414349,-1.365775 0.04876,-0.780224 0.682888,-1.414348 1.414349,-1.414348 z" fill="#fff"/></svg>