<svg xmlns="http://www.w3.org/2000/svg" height="40" width="40"><path d="M 3.3513007,5 C 2.451371,5 1.6693946,5.3320376 1.0030467,5.9984372 0.3358989,6.6648368 0,7.4468744 0,8.3468746 V 31.648437 c 1e-7,0.9 0.3358989,1.682037 1.0030467,2.348437 0.6663478,0.6672 1.4483243,1.003125 2.348254,1.003125 H 36.6487 c 0.89993,0 1.681906,-0.335925 2.348254,-1.003125 0.667148,-0.6664 1.003047,-1.448437 1.003047,-2.348437 V 8.3468746 c 0,-0.9000002 -0.335899,-1.6820378 -1.003047,-2.3484374 C 38.330606,5.3320376 37.54863,5 36.6487,5 Z m 0,3.3468746 H 36.6487 V 31.648437 H 3.3513007 Z M 7.318959,14.400781 c 0,0 -0.710275,5.337206 2.781816,7.560937 a 4.0270606,3.3640667 0 0 0 -0.393721,1.450781 4.0270606,3.3640667 0 0 0 4.026249,3.363281 4.0270606,3.3640667 0 0 0 4.026247,-3.363281 4.0270606,3.3640667 0 0 0 -0.414811,-1.485937 c 3.430196,-2.24433 2.727913,-7.525781 2.727913,-7.525781 -3.681514,0.615082 -4.734102,3.597261 -5.003516,5.838281 A 4.0270606,3.3640667 0 0 0 13.733303,20.049217 4.0270606,3.3640667 0 0 0 12.32482,20.262499 C 12.059775,18.019064 11.012674,15.0179 7.318959,14.400781 Z m 16.932273,1.896094 v 2.653124 h 8.347785 v -2.653124 z m 0,5.751561 v 2.7 h 8.347785 v -2.7 z" fill="#fff"/></svg>
