<svg xmlns="http://www.w3.org/2000/svg" height="40" width="40"><path d="M 27.4375 14 C 26.9235 14 26.501302 14.166667 26.167969 14.5 L 17.582031 23.082031 L 13.875 19.332031 C 13.541667 18.998698 13.125 18.832031 12.625 18.832031 C 12.125 18.832031 11.708333 19.013667 11.375 19.375 C 11.013667 19.708333 10.832031 20.132484 10.832031 20.646484 C 10.832031 21.160484 10.998698 21.584635 11.332031 21.917969 L 16.375 26.917969 C 16.708333 27.278635 17.110031 27.457031 17.582031 27.457031 C 18.054698 27.457031 18.471365 27.278635 18.832031 26.917969 L 28.75 17 C 29.083333 16.694667 29.25 16.292969 29.25 15.792969 C 29.25 15.292969 29.068365 14.846365 28.707031 14.457031 C 28.373698 14.151698 27.950833 14 27.4375 14 z " fill="#fff"/><path d="m 17.582031,23.082031 -3.708,-3.75 q -0.5,-0.5 -1.25,-0.5 -0.75,0 -1.25,0.542 -0.542,0.5 -0.542,1.271 0,0.771 0.5,1.271 l 5.042,5 q 0.5,0.541 1.208,0.541 0.709,0 1.25,-0.541 l 9.917,-9.917 q 0.5,-0.458 0.5,-1.208 0,-0.75 -0.542,-1.334 -0.5,-0.458 -1.27,-0.458 -0.771,0 -1.271,0.5 z m 2.417,14.459 q -3.667,0 -6.896,-1.354 -3.229,-1.355 -5.583,-3.709 -2.354,-2.354 -3.709,-5.583 -1.354,-3.229 -1.354,-6.896 0,-3.708 1.354,-6.917 1.355,-3.208 3.73,-5.5619999 2.375,-2.354 5.583,-3.708 3.208,-1.355 6.875,-1.355 3.708,0 6.917,1.355 3.208,1.354 5.562,3.708 2.354,2.3539999 3.709,5.5829999 1.354,3.229 1.354,6.896 0,3.708 -1.354,6.896 -1.355,3.187 -3.709,5.562 -2.354,2.375 -5.562,3.73 -3.209,1.354 -6.917,1.354 z" fill="#6bc90e"/></svg>