<svg xmlns="http://www.w3.org/2000/svg" height="40" width="40"><path d="M12.583 27.417q.459.541 1.188.541.729 0 1.229-.541l5-4.959 5.042 5q.5.542 1.208.521.708-.021 1.208-.562.5-.459.5-1.188 0-.729-.5-1.229l-5-5 5.042-5.042q.5-.5.479-1.208-.021-.708-.521-1.208t-1.229-.5q-.729 0-1.229.5l-5 5-5.042-5.042q-.5-.5-1.208-.479-.708.021-1.167.521-.541.5-.541 1.229 0 .729.541 1.229l4.959 5-5 5.042q-.542.5-.521 1.208.021.708.562 1.167ZM20 37.542q-3.667 0-6.896-1.354-3.229-1.355-5.583-3.709t-3.709-5.583Q2.458 23.667 2.458 20q0-3.708 1.354-6.917 1.355-3.208 3.73-5.562t5.583-3.708Q16.333 2.458 20 2.458q3.708 0 6.917 1.355 3.208 1.354 5.562 3.708t3.709 5.583q1.354 3.229 1.354 6.896 0 3.708-1.354 6.896-1.355 3.187-3.709 5.562-2.354 2.375-5.562 3.73-3.209 1.354-6.917 1.354Z" fill="#f00"/><path d="m 13.75,12.020515 c -0.472,0.014 -0.861969,0.188151 -1.167969,0.521485 -0.360666,0.333333 -0.539062,0.742515 -0.539062,1.228515 0,0.486 0.178396,0.895183 0.539062,1.228516 l 4.960938,5 -5,5.042969 c -0.361334,0.333333 -0.535485,0.735031 -0.521485,1.207031 0.014,0.472 0.199881,0.861969 0.560547,1.167969 0.306,0.360666 0.703453,0.539062 1.189453,0.539062 0.486,0 0.895183,-0.178396 1.228516,-0.539062 l 5,-4.960938 5.042969,5 c 0.333333,0.361334 0.735031,0.535485 1.207031,0.521485 0.472,-0.014 0.873698,-0.199881 1.207031,-0.560547 0.333334,-0.306 0.5,-0.703453 0.5,-1.189453 0,-0.486 -0.166666,-0.895183 -0.5,-1.228516 l -5,-5 L 27.5,14.956062 c 0.333333,-0.333333 0.492516,-0.735031 0.478516,-1.207031 -0.014,-0.472 -0.188151,-0.873698 -0.521485,-1.207031 -0.333333,-0.333334 -0.742515,-0.5 -1.228515,-0.5 -0.486,0 -0.895183,0.166666 -1.228516,0.5 l -5,5 -5.042969,-5.042969 C 14.623698,12.165698 14.222,12.006515 13.75,12.020515 Z" fill="#fff"/></svg>