<svg xmlns="http://www.w3.org/2000/svg" height="40" width="40"><path d="M20.083 30.417q.834 0 1.438-.584.604-.583.604-1.458 0-.833-.583-1.417-.584-.583-1.459-.583-.833 0-1.437.583-.604.584-.604 1.417 0 .875.583 1.458.583.584 1.458.584Zm.084-17.917q1.208 0 2.041.688.834.687.834 1.77 0 .792-.459 1.563-.458.771-1.541 1.646-1.084.916-1.896 1.916-.813 1-.813 2.292 0 .667.479 1.063.48.395 1.105.395.708 0 1.166-.437.459-.438.625-1.146.125-.75.584-1.438.458-.687 1.416-1.562 1.292-1.125 1.854-2.208.563-1.084.563-2.375 0-2.334-1.604-3.729-1.604-1.396-4.313-1.396-1.791 0-3.187.708t-2.354 2q-.375.542-.271 1.146.104.604.562.937.542.375 1.23.23.687-.146 1.229-.771.458-.667 1.166-.98.709-.312 1.584-.312Zm-.209 25.042q-3.666 0-6.875-1.354-3.208-1.355-5.562-3.73t-3.709-5.562Q2.458 23.708 2.458 20q0-3.708 1.354-6.896 1.355-3.187 3.709-5.562 2.354-2.375 5.562-3.729 3.209-1.355 6.875-1.355 3.625 0 6.834 1.355Q30 5.167 32.396 7.521t3.771 5.583q1.375 3.229 1.375 6.896 0 3.708-1.375 6.896-1.375 3.187-3.771 5.562-2.396 2.375-5.604 3.73-3.209 1.354-6.834 1.354Z" fill="#ebbe0b"/><path d="m 20.206062,9.5419998 c -1.194,0 -2.25488,0.2350312 -3.185547,0.7070312 -0.930666,0.472 -1.714849,1.138667 -2.353515,2 -0.25,0.361333 -0.340818,0.743818 -0.271485,1.146484 0.06933,0.402667 0.255214,0.713547 0.560547,0.935547 0.361334,0.25 0.771802,0.327136 1.230469,0.230469 0.458,-0.09733 0.869135,-0.352865 1.230469,-0.769531 0.305333,-0.444667 0.692062,-0.771802 1.164062,-0.980469 0.472667,-0.208 1.002604,-0.3125 1.585938,-0.3125 0.805333,0 1.483729,0.228833 2.039062,0.6875 0.556,0.458 0.835938,1.047531 0.835938,1.769531 0,0.528 -0.154938,1.050453 -0.460938,1.564453 -0.305333,0.514 -0.817062,1.063151 -1.539062,1.646485 -0.722667,0.610666 -1.355151,1.247396 -1.896485,1.914062 -0.542,0.666667 -0.814453,1.431636 -0.814453,2.292969 0,0.444667 0.161136,0.7985 0.480469,1.0625 0.32,0.263333 0.688802,0.394531 1.105469,0.394531 0.472,0 0.858729,-0.144213 1.164062,-0.435547 0.306,-0.292 0.514334,-0.674484 0.625,-1.146484 0.08333,-0.5 0.279938,-0.978833 0.585938,-1.4375 0.305333,-0.458 0.775396,-0.979167 1.414062,-1.5625 0.861334,-0.75 1.480802,-1.485031 1.855469,-2.207031 0.375333,-0.722667 0.5625,-1.514334 0.5625,-2.375 0,-1.556 -0.534182,-2.800469 -1.603516,-3.730469 -1.069333,-0.930667 -2.508453,-1.3945312 -4.314453,-1.3945312 z m -0.125,16.8320312 c -0.555333,0 -1.03288,0.193365 -1.435547,0.582031 -0.402666,0.389334 -0.603515,0.862636 -0.603515,1.417969 0,0.583333 0.193364,1.068365 0.582031,1.457031 0.388667,0.389334 0.873698,0.585938 1.457031,0.585938 0.556,0 1.036787,-0.196604 1.439453,-0.585938 0.402667,-0.388666 0.603516,-0.873698 0.603516,-1.457031 0,-0.555333 -0.193365,-1.028635 -0.582031,-1.417969 -0.389334,-0.388666 -0.877604,-0.582031 -1.460938,-0.582031 z" fill="#fff"/></svg>