<svg xmlns="http://www.w3.org/2000/svg" width="50" height="50"><path d="M 23.266669,48 Q 18.750857,48 14.680241,46.66439 10.609644,45.265137 7.87471,42.784597 l 2.289719,-5.088259 q 2.989345,2.416932 6.169511,3.561792 3.18015,1.144859 6.741925,1.144859 4.579437,0 6.932746,-1.971681 2.416915,-1.971702 2.416915,-5.66069 0,-3.68899 -2.416915,-5.469868 -2.353309,-1.780933 -6.86914,-1.780933 h -6.932746 v -5.533475 h 6.29671 q 4.007007,0 6.296709,-2.035289 2.353325,-2.035308 2.353325,-5.597083 0,-3.243756 -2.162504,-4.961044 -2.162504,-1.780933 -6.169511,-1.780933 -6.805531,0 -11.893792,4.897455 L 8.637943,7.484795 q 2.607738,-2.607736 6.48753,-4.007007 3.943401,-1.462895 8.204803,-1.462895 6.741941,0 10.494519,3.116558 3.752598,3.052953 3.752598,8.522822 0,3.688988 -1.908093,6.48753 -1.844505,2.798541 -5.151867,4.070597 4.007007,1.017753 6.169511,3.9434 2.162504,2.862148 2.162504,7.059942 0,5.915102 -4.197812,9.349679 Q 30.517433,47.999981 23.266669,48 Z" fill="#fff"/></svg>