<svg xmlns="http://www.w3.org/2000/svg" width="50" height="50"><path d="m 23.0759,47.713749 q -4.325008,0 -8.395605,-1.33561 -4.007009,-1.399252 -6.678334,-3.879793 l 2.226112,-5.088242 q 5.851492,4.706634 12.720631,4.706634 4.388615,0 6.869138,-2.353326 2.480523,-2.416915 2.480523,-6.296709 0,-4.007007 -2.353308,-6.551118 -2.353326,-2.544132 -6.551137,-2.544132 -5.915084,0 -9.476859,4.897438 H 9.337623 V 2.301161 h 26.71332 V 7.834636 H 15.761547 v 14.183492 q 3.561776,-3.116541 9.031642,-3.116541 4.26142,0 7.37798,1.780932 3.116541,1.780931 4.83383,5.024652 1.717289,3.180168 1.717289,7.441569 0,4.325008 -1.908093,7.632389 -1.908094,3.243756 -5.406279,5.088243 -3.498167,1.844484 -8.332016,1.844484 z" fill="#fff"/></svg>